<svg width="23" height="22" viewBox="0 0 23 22" fill="none" xmlns="http://www.w3.org/2000/svg">
<path d="M13.4786 11.0029L21.9485 2.76728C22.077 2.64656 22.1796 2.50215 22.2501 2.34248C22.3206 2.18281 22.3578 2.01109 22.3593 1.83732C22.3609 1.66355 22.3268 1.49122 22.2591 1.33038C22.1915 1.16955 22.0915 1.02343 21.9651 0.900552C21.8388 0.777675 21.6885 0.680499 21.5231 0.614697C21.3577 0.548894 21.1804 0.515782 21.0017 0.517292C20.823 0.518802 20.6464 0.554904 20.4822 0.623492C20.3179 0.69208 20.1694 0.79178 20.0453 0.916774L11.5751 9.15211L3.10526 0.916774C2.85192 0.675859 2.51109 0.541803 2.15673 0.543701C1.80237 0.545598 1.46308 0.683295 1.21248 0.926909C0.961888 1.17052 0.820211 1.5004 0.818197 1.84494C0.816183 2.18949 0.953995 2.52091 1.20173 2.76728L9.6719 11.0029L1.20173 19.2386C1.07445 19.3596 0.973141 19.504 0.903651 19.6634C0.834162 19.8227 0.797876 19.9939 0.796895 20.167C0.795915 20.3401 0.83026 20.5117 0.89794 20.6718C0.96562 20.8319 1.06529 20.9773 1.19118 21.0997C1.31708 21.2221 1.46669 21.319 1.63135 21.3847C1.79602 21.4505 1.97247 21.4839 2.15049 21.4829C2.32851 21.4819 2.50456 21.4466 2.66845 21.379C2.83234 21.3114 2.98081 21.2129 3.10526 21.0891L11.5751 12.8538L20.0453 21.0891C20.3081 21.3446 20.6526 21.4726 20.9969 21.4726C21.3411 21.4726 21.686 21.3446 21.9485 21.0891C22.2008 20.8437 22.3425 20.5109 22.3425 20.1639C22.3425 19.8168 22.2008 19.484 21.9485 19.2386L13.4786 11.0029Z" fill="#4C4C4C"/>
</svg>
