<svg width="26" height="27" viewBox="0 0 26 27" fill="none" xmlns="http://www.w3.org/2000/svg">
<path d="M25.6349 24.6012L20.8148 19.8164C22.6858 17.4818 23.5919 14.5184 23.3467 11.5357C23.1016 8.55305 21.7238 5.77772 19.4968 3.78041C17.2697 1.7831 14.3626 0.715627 11.3732 0.797489C8.38384 0.879351 5.53942 2.10432 3.42482 4.22053C1.31022 6.33673 0.0861795 9.18331 0.00437965 12.175C-0.0774202 15.1666 0.98924 18.0759 2.98503 20.3047C4.98083 22.5334 7.75405 23.9122 10.7345 24.1576C13.7149 24.4029 16.676 23.4962 19.0089 21.6237L23.79 26.4085C23.9108 26.5304 24.0545 26.6271 24.2128 26.6931C24.3711 26.7591 24.541 26.7931 24.7125 26.7931C24.884 26.7931 25.0538 26.7591 25.2121 26.6931C25.3705 26.6271 25.5141 26.5304 25.6349 26.4085C25.8691 26.1661 26 25.8421 26 25.5049C26 25.1677 25.8691 24.8437 25.6349 24.6012ZM11.7202 21.6237C9.92146 21.6237 8.16312 21.0899 6.66752 20.0898C5.17192 19.0898 4.00624 17.6683 3.31789 16.0052C2.62955 14.3421 2.44944 12.5121 2.80036 10.7466C3.15128 8.98108 4.01745 7.35935 5.28935 6.08648C6.56126 4.81361 8.18176 3.94678 9.94594 3.59559C11.7101 3.24441 13.5387 3.42465 15.2006 4.11352C16.8624 4.80239 18.2828 5.96896 19.2821 7.46569C20.2814 8.96242 20.8148 10.7221 20.8148 12.5222C20.8148 14.9361 19.8566 17.2511 18.1511 18.9579C16.4455 20.6648 14.1322 21.6237 11.7202 21.6237Z" fill="#4C4C4C"/>
</svg>
