<svg width="20" height="20" viewBox="0 0 20 20" fill="none" xmlns="http://www.w3.org/2000/svg">
<path d="M14.6551 2.24133C17.0864 3.85267 18.9999 6.86474 18.9999 9.99995C18.9999 13.1353 17.0864 16.1473 14.6551 17.7586M5.34483 2.24133C2.91352 3.85267 1 6.86474 1 9.99995C1 13.1353 2.91352 16.1473 5.34483 17.7586M13.4139 5.96546C14.3725 6.92072 15.276 8.53984 15.276 9.99995C15.276 11.4602 14.3725 13.0792 13.4139 14.0344M6.58612 5.96546C5.62758 6.92072 4.72405 8.53984 4.72405 9.99995C4.72405 11.4602 5.62758 13.0792 6.58612 14.0344M10.6208 9.99996C10.6208 10.3427 10.3429 10.6206 10.0001 10.6206C9.65737 10.6206 9.37943 10.3427 9.37943 9.99996C9.37943 9.65721 9.65737 9.37927 10.0001 9.37927C10.3429 9.37927 10.6208 9.65721 10.6208 9.99996Z" stroke="#170F49" stroke-width="1.5" stroke-linecap="round" stroke-linejoin="round"/>
</svg>
