<svg width="58" height="58" viewBox="0 0 58 58" fill="none" xmlns="http://www.w3.org/2000/svg">
<path d="M4.34126 24.6202C1.94368 38.2176 11.0229 51.184 24.6202 53.5816C38.2176 55.9792 51.1841 46.9 53.5816 33.3026C55.9792 19.7053 46.9 6.73881 33.3027 4.34123C19.7053 1.94365 6.73884 11.0229 4.34126 24.6202Z" fill="#3478F5" fill-opacity="0.2"/>
<path d="M17.1437 26.8776C15.9929 33.4044 20.3509 39.6283 26.8777 40.7791C33.4044 41.93 39.6283 37.5719 40.7791 31.0452C41.93 24.5185 37.572 18.2946 31.0452 17.1437C24.5185 15.9929 18.2946 20.3509 17.1437 26.8776Z" fill="white"/>
<path d="M19.1134 27.2249C18.1544 32.6639 21.786 37.8505 27.225 38.8095C32.6639 39.7685 37.8505 36.1368 38.8095 30.6979C39.7686 25.259 36.1369 20.0724 30.6979 19.1133C25.259 18.1543 20.0724 21.786 19.1134 27.2249Z" fill="#3478F5"/>
<path fill-rule="evenodd" clip-rule="evenodd" d="M39.911 35.9693L44.7184 31.7398L41.6474 26.1212C41.8251 27.7551 41.777 29.4521 41.4745 31.1678C41.1719 32.8835 40.6367 34.4947 39.911 35.9693Z" fill="#3478F5"/>
</svg>
