<svg width="36" height="42" viewBox="0 0 36 42" fill="none" xmlns="http://www.w3.org/2000/svg">
<g opacity="0.4">
<path fill-rule="evenodd" clip-rule="evenodd" d="M18 1.20834C8.81041 1.20834 1.33333 8.77709 1.33333 18.0813C1.33333 29.3479 11.0292 40.7917 18 40.7917C24.9687 40.7917 34.6667 29.3479 34.6667 18.0813C34.6667 8.77709 27.1896 1.20834 18 1.20834Z" fill="#FF383C"/>
<path fill-rule="evenodd" clip-rule="evenodd" d="M18 1.20834C8.81041 1.20834 1.33333 8.77709 1.33333 18.0813C1.33333 29.3479 11.0292 40.7917 18 40.7917C24.9687 40.7917 34.6667 29.3479 34.6667 18.0813C34.6667 8.77709 27.1896 1.20834 18 1.20834Z" stroke="#FF383C"/>
<path fill-rule="evenodd" clip-rule="evenodd" d="M18 1.20834C8.81041 1.20834 1.33333 8.77709 1.33333 18.0813C1.33333 29.3479 11.0292 40.7917 18 40.7917C24.9687 40.7917 34.6667 29.3479 34.6667 18.0813C34.6667 8.77709 27.1896 1.20834 18 1.20834Z" stroke="black" stroke-opacity="0.2"/>
</g>
<path d="M12.0562 18.3128C12.0562 21.6024 14.7312 24.2774 18.0208 24.2774C21.3104 24.2774 23.9874 21.6024 23.9874 18.3128C23.9874 15.0233 21.3104 12.3483 18.0208 12.3483C14.7312 12.3483 12.0562 15.0233 12.0562 18.3128Z" fill="#FF383C"/>
<path d="M12.0562 18.3128C12.0562 21.6024 14.7312 24.2774 18.0208 24.2774C21.3104 24.2774 23.9874 21.6024 23.9874 18.3128C23.9874 15.0233 21.3104 12.3483 18.0208 12.3483C14.7312 12.3483 12.0562 15.0233 12.0562 18.3128Z" stroke="#FF383C"/>
<path d="M12.0562 18.3128C12.0562 21.6024 14.7312 24.2774 18.0208 24.2774C21.3104 24.2774 23.9874 21.6024 23.9874 18.3128C23.9874 15.0233 21.3104 12.3483 18.0208 12.3483C14.7312 12.3483 12.0562 15.0233 12.0562 18.3128Z" stroke="black" stroke-opacity="0.2"/>
</svg>
